<?xml version="1.0" standalone="no"?>
<!DOCTYPE svg PUBLIC "-//W3C//DTD SVG 20010904//EN"
 "http://www.w3.org/TR/2001/REC-SVG-20010904/DTD/svg10.dtd">
<svg version="1.0" xmlns="http://www.w3.org/2000/svg"
 width="1024.000000pt" height="1024.000000pt" viewBox="0 0 1024.000000 1024.000000"
 preserveAspectRatio="xMidYMid meet">

<g transform="translate(0.000000,1024.000000) scale(0.100000,-0.100000)"
fill="#000000" stroke="none">
<path d="M3828 5248 c-2 -288 -2 -567 0 -620 l3 -98 70 0 69 0 0 118 0 117 94
94 93 93 149 -211 149 -210 88 0 c68 -1 86 2 81 12 -5 6 -89 124 -187 261
l-178 250 158 158 158 158 -90 0 -91 0 -209 -207 -210 -208 -3 408 -2 407 -70
0 -69 0 -3 -522z"/>
<path d="M1740 5590 l0 -70 195 0 195 0 0 -495 0 -495 75 0 75 0 0 495 0 495
200 0 200 0 0 70 0 70 -470 0 -470 0 0 -70z"/>
<path d="M4818 5573 c-5 -117 3 -1035 9 -1029 3 2 20 -2 38 -10 52 -21 1175
-21 1258 1 116 30 228 105 308 206 l31 39 -28 37 c-68 85 -51 86 -145 -9 -97
-98 -162 -135 -259 -146 -36 -4 -290 -6 -565 -4 l-500 3 3 500 2 499 -74 0
-74 0 -4 -87z"/>
<path d="M3064 5375 c-223 -48 -360 -256 -325 -493 15 -100 48 -169 112 -237
155 -164 445 -177 626 -29 l43 36 -41 49 -42 50 -26 -25 c-14 -14 -53 -37 -86
-53 -51 -24 -72 -28 -145 -28 -102 1 -158 23 -218 84 -36 37 -72 111 -72 148
0 10 65 13 340 13 l340 0 0 60 c0 231 -131 397 -340 430 -79 12 -89 12 -166
-5z m226 -153 c43 -22 62 -39 86 -80 29 -48 51 -118 41 -128 -2 -2 -124 -3
-270 -2 l-266 3 18 53 c31 91 104 160 195 183 52 13 137 1 196 -29z"/>
<path d="M5908 5374 c-111 -26 -208 -92 -270 -182 l-32 -47 40 32 c98 77 194
107 322 101 164 -8 248 -73 502 -383 213 -260 285 -323 409 -359 78 -23 204
-21 277 4 109 37 193 109 243 207 30 60 27 62 -21 14 -83 -82 -217 -129 -337
-117 -149 13 -243 88 -497 397 -84 102 -174 205 -201 229 -115 102 -280 142
-435 104z"/>
<path d="M6904 5375 c-112 -24 -205 -84 -289 -187 l-47 -57 44 -55 c23 -30 46
-54 49 -53 3 1 30 31 60 67 104 124 226 181 342 159 140 -26 226 -131 227
-274 0 -86 -12 -129 -49 -186 -17 -24 -28 -45 -26 -47 7 -8 109 51 146 85 89
81 103 185 41 317 -58 124 -157 203 -289 231 -82 18 -129 18 -209 0z"/>
<path d="M7980 5375 c-61 -18 -126 -52 -154 -84 -27 -30 -36 -26 -36 13 0 61
-6 66 -76 66 l-64 0 0 -560 0 -560 70 0 70 0 0 196 0 196 46 -41 c70 -62 140
-85 254 -85 75 0 107 5 152 22 119 48 209 149 243 276 14 50 17 89 13 166 -5
96 -8 107 -49 188 -51 100 -111 156 -206 192 -76 29 -190 35 -263 15z m215
-149 c55 -25 94 -65 127 -130 33 -62 37 -202 9 -277 -42 -112 -134 -174 -256
-173 -174 0 -285 118 -285 304 0 134 53 229 155 276 70 33 180 33 250 0z"/>
<path d="M5753 5169 c-66 -25 -148 -98 -164 -146 -16 -49 -6 -155 21 -225 l21
-58 90 0 89 0 -29 40 c-77 107 -65 285 27 383 31 33 18 34 -55 6z"/>
</g>
</svg>
