<?xml version="1.0" standalone="no"?>
<!DOCTYPE svg PUBLIC "-//W3C//DTD SVG 20010904//EN"
 "http://www.w3.org/TR/2001/REC-SVG-20010904/DTD/svg10.dtd">
<svg version="1.0" xmlns="http://www.w3.org/2000/svg"
 width="1024.000000pt" height="1024.000000pt" viewBox="0 0 1024.000000 1024.000000"
 preserveAspectRatio="xMidYMid meet">

<g transform="translate(0.000000,1024.000000) scale(0.100000,-0.100000)"
fill="#000000" stroke="none">
<path d="M0 5120 l0 -5120 5120 0 5120 0 0 5120 0 5120 -5120 0 -5120 0 0
-5120z m5308 2360 c185 -20 398 -79 564 -158 100 -48 262 -153 371 -242 212
-170 434 -497 520 -765 68 -210 87 -333 87 -563 0 -184 -15 -309 -56 -466
-123 -469 -461 -884 -899 -1104 -650 -325 -1443 -198 -1962 315 -331 328 -506
732 -520 1203 -6 194 8 324 53 498 99 382 347 740 675 974 328 235 765 350
1167 308z m-548 -4037 l1 -128 20 28 c30 39 70 57 131 57 63 0 109 -24 135
-72 15 -27 19 -63 21 -205 l4 -173 -36 0 -36 0 0 165 0 165 -27 30 c-52 58
-151 46 -193 -22 -18 -29 -20 -50 -20 -186 l0 -152 -30 2 -30 2 -2 196 c-1
107 -2 246 -4 308 l-1 112 33 0 34 0 0 -127z m-990 87 l0 -30 -100 0 -100 0 0
-276 c0 -248 -2 -276 -16 -270 -9 3 -22 6 -30 6 -12 0 -14 43 -14 269 0 236
-2 270 -16 275 -9 3 -56 6 -105 6 -88 0 -89 0 -89 25 l0 25 235 0 235 0 0 -30z
m1482 -245 l-3 -275 156 0 155 0 0 -30 0 -30 -185 0 -185 0 0 305 0 305 33 0
32 0 -3 -275z m1148 100 c69 -36 110 -113 110 -206 0 -128 -52 -207 -151 -228
-173 -37 -290 85 -259 273 14 84 40 125 100 156 59 31 146 33 200 5z m460 14
c54 -12 114 -66 132 -118 20 -60 14 -182 -12 -236 -52 -107 -201 -136 -281
-55 -16 15 -31 25 -34 22 -3 -3 -5 -54 -5 -114 l0 -108 -30 0 -30 0 0 305 0
305 30 0 c28 0 30 -2 30 -41 l0 -40 33 35 c18 19 46 38 63 41 16 4 34 8 39 10
16 5 17 5 65 -6z m-2823 -10 c65 -24 112 -100 113 -181 l0 -48 -165 0 c-163 0
-165 0 -165 -22 0 -36 38 -102 69 -121 58 -34 171 -14 186 33 5 15 15 20 40
20 28 0 33 -3 28 -17 -10 -29 -56 -75 -90 -89 -38 -17 -130 -18 -170 -3 -46
17 -92 69 -108 123 -38 127 4 253 100 301 35 17 121 20 162 4z m466 -3 c41
-17 83 -59 96 -97 10 -28 9 -29 -19 -29 -22 0 -33 7 -44 29 -17 32 -70 61
-114 61 -38 0 -91 -36 -116 -80 -27 -46 -28 -150 -3 -198 39 -72 146 -97 206
-47 16 14 32 34 35 43 4 11 17 17 36 18 26 1 30 -2 24 -20 -19 -68 -76 -109
-158 -114 -82 -5 -126 10 -170 58 -97 108 -65 315 58 371 48 22 124 24 169 5z
m1410 0 c80 -33 127 -138 113 -255 -14 -119 -88 -185 -206 -185 -132 1 -202
78 -203 224 -1 151 67 229 201 230 34 0 77 -6 95 -14z"/>
<path d="M4940 7374 c-263 -47 -401 -91 -559 -175 -431 -230 -729 -622 -836
-1098 -62 -276 -47 -592 41 -866 38 -117 154 -346 232 -454 226 -318 591 -557
977 -640 505 -110 1004 23 1405 372 262 229 450 561 522 921 30 149 32 463 5
601 -50 249 -123 429 -256 626 -129 192 -255 319 -450 450 -177 119 -344 191
-550 236 -97 21 -148 26 -311 28 -107 2 -206 1 -220 -1z m811 -295 c76 -36
133 -90 166 -157 l28 -57 0 -1120 0 -1120 -26 -56 c-34 -72 -90 -128 -165
-165 l-59 -29 -560 0 -560 0 -62 29 c-95 43 -167 127 -191 221 -7 26 -11 427
-13 1125 l-4 1085 23 56 c38 96 109 163 212 201 40 15 101 17 600 15 l555 -2
56 -26z"/>
<path d="M4574 6996 c-61 -19 -110 -61 -139 -119 l-25 -52 -1 -1080 c-1 -1190
-5 -1113 61 -1189 45 -51 99 -76 178 -83 l67 -5 13 48 c29 110 124 188 260
214 37 8 107 11 179 8 141 -6 213 -30 281 -92 44 -40 92 -123 92 -160 0 -17 6
-18 69 -13 105 9 171 51 217 137 18 33 19 83 22 1109 3 1212 7 1136 -74 1217
-30 31 -58 48 -98 59 -80 23 -108 18 -118 -24 -15 -58 -57 -109 -111 -136 -51
-25 -52 -25 -317 -25 l-266 0 -52 26 c-57 28 -96 76 -113 137 -9 34 -12 37
-47 36 -20 0 -56 -6 -78 -13z m-4 -546 c20 -20 20 -33 20 -727 0 -643 -1 -708
-17 -725 -20 -22 -56 -23 -73 -3 -10 12 -14 175 -17 720 l-4 705 25 25 c30 30
40 31 66 5z m1178 4 l22 -15 0 -718 c0 -544 -3 -720 -12 -729 -15 -15 -61 -15
-76 0 -9 9 -12 185 -12 729 l0 718 22 15 c12 9 25 16 28 16 3 0 16 -7 28 -16z"/>
<path d="M4800 6992 c0 -10 14 -31 31 -48 l30 -29 269 0 270 0 24 25 c14 14
26 34 28 45 3 20 -3 20 -324 23 -312 2 -328 1 -328 -16z"/>
<path d="M4982 4630 c-79 -17 -142 -70 -157 -133 l-7 -27 312 0 312 0 -7 28
c-9 38 -62 91 -114 114 -35 16 -71 21 -170 24 -69 2 -145 -1 -169 -6z"/>
<path d="M3310 3536 c0 -9 5 -16 10 -16 6 0 10 4 10 9 0 6 -4 13 -10 16 -5 3
-10 -1 -10 -9z"/>
<path d="M3542 3225 c0 -16 2 -22 5 -12 2 9 2 23 0 30 -3 6 -5 -1 -5 -18z"/>
<path d="M3533 3174 c-9 -9 -10 -15 -2 -20 6 -3 9 -15 6 -25 -3 -11 -2 -19 3
-19 13 0 19 27 12 53 -6 20 -9 22 -19 11z"/>
<path d="M6240 3332 c-100 -54 -107 -258 -11 -315 67 -39 169 -9 197 58 18 44
18 158 0 193 -38 73 -118 101 -186 64z"/>
<path d="M6764 3339 c-75 -22 -115 -113 -94 -216 20 -96 95 -143 178 -111 126
48 118 279 -11 327 -32 12 -31 12 -73 0z"/>
<path d="M3905 3340 c-31 -12 -64 -53 -75 -90 -5 -19 -8 -35 -6 -37 3 -3 155
-6 229 -4 34 1 37 3 37 30 0 75 -107 134 -185 101z"/>
<path d="M3806 3088 c6 -21 42 -78 48 -78 2 0 -8 23 -21 50 -25 52 -40 67 -27
28z"/>
<path d="M3795 3050 c3 -5 8 -10 11 -10 2 0 4 5 4 10 0 6 -5 10 -11 10 -5 0
-7 -4 -4 -10z"/>
<path d="M5760 3332 c-73 -36 -103 -165 -61 -259 23 -49 62 -73 121 -73 90 0
139 62 140 175 0 73 -22 121 -69 152 -41 27 -84 29 -131 5z"/>
</g>
</svg>
